ISO-10303-21;
HEADER;
/* Generated by software containing ST-Developer
 * from STEP Tools, Inc. (www.steptools.com) 
 */
/* OPTION: using custom renumber hook */

FILE_DESCRIPTION(
/* description */ ('STEP AP242 Edition 2',
'CAx-IF Rec.Pracs.---Representation and Presentation of Product Manufa
cturing Information (PMI)---4.0---2014-10-13',
'CAx-IF Rec.Pracs.---3D Tessellated Geometry---0.4---2014-09-14','2;1',
'CAx-IF Rec.Pracs.---User Defined Attributes---1.5---2016-08-15'),
/* implementation_level */ '2;1');

FILE_NAME(
/* name */ 'Part Studio 1 - Part 1',
/* time_stamp */ '2026-09-25T06:42:40Z',
/* author */ (''),
/* organization */ (''),
/* preprocessor_version */ 'ST-DEVELOPER v20',
/* originating_system */ 'ONSHAPE BY PTC INC, 1.221',
/* authorisation */ '  ');

FILE_SCHEMA (('AP242_MANAGED_MODEL_BASED_3D_ENGINEERING_MIM_LF { 1 0 10303 442 3 1 4 }'));
ENDSEC;

DATA;
#10=SHAPE_REPRESENTATION_RELATIONSHIP('','',#651,#11);
#11=ADVANCED_BREP_SHAPE_REPRESENTATION('',(#649),#1131);
#12=CONICAL_SURFACE('',#699,0.0005,0.785398163397448);
#13=CONICAL_SURFACE('',#700,0.00343413173598499,0.785398163397448);
#14=CONICAL_SURFACE('',#701,0.0167,0.785398163397448);
#15=CONICAL_SURFACE('',#703,0.001,0.785398163397448);
#16=CONICAL_SURFACE('',#704,0.00293413173598499,0.785398163397449);
#17=CONICAL_SURFACE('',#705,0.0162,0.785398163397448);
#18=CONICAL_SURFACE('',#706,0.0167,0.785398163397448);
#19=CONICAL_SURFACE('',#707,0.00293413173706889,0.785398163397448);
#20=CONICAL_SURFACE('',#708,0.0005,0.785398163397449);
#21=CONICAL_SURFACE('',#710,0.0162,0.785398163397448);
#22=CONICAL_SURFACE('',#711,0.00343413173706889,0.785398163397446);
#23=CONICAL_SURFACE('',#712,0.001,0.785398163397448);
#24=CONICAL_SURFACE('',#714,0.0137,0.776600652800553);
#25=CONICAL_SURFACE('',#717,0.0142094634314292,0.776600652800551);
#26=CONICAL_SURFACE('',#722,0.0045,0.785398163397448);
#27=B_SPLINE_CURVE_WITH_KNOTS('',3,(#953,#954,#955,#956,#957,#958,#959,
#960,#961),.UNSPECIFIED.,.F.,.F.,(4,1,1,1,1,1,4),(0.0212492474549815,0.0247913561159551,
0.0265624104464419,0.0283334647769288,0.0301045191074156,0.0318755734379024,
0.0354176820988761),.UNSPECIFIED.);
#28=B_SPLINE_CURVE_WITH_KNOTS('',3,(#964,#965,#966,#967,#968,#969,#970,
#971,#972),.UNSPECIFIED.,.F.,.F.,(4,1,1,1,1,1,4),(0.00708591780787583,0.0106267502196522,
0.0123971664255404,0.0141675826314286,0.0159379988373168,0.0177084150432051,
0.0212492474549815),.UNSPECIFIED.);
#29=B_SPLINE_CURVE_WITH_KNOTS('',3,(#1106,#1107,#1108,#1109),
 .UNSPECIFIED.,.F.,.F.,(4,4),(0.,0.000876401013938945),.UNSPECIFIED.);
#30=B_SPLINE_CURVE_WITH_KNOTS('',3,(#1110,#1111,#1112,#1113),
 .UNSPECIFIED.,.F.,.F.,(4,4),(0.,0.000876401013433639),.UNSPECIFIED.);
#31=B_SPLINE_CURVE_WITH_KNOTS('',3,(#1115,#1116,#1117,#1118),
 .UNSPECIFIED.,.F.,.F.,(4,4),(0.,0.000876401013433651),.UNSPECIFIED.);
#32=B_SPLINE_CURVE_WITH_KNOTS('',3,(#1120,#1121,#1122,#1123),
 .UNSPECIFIED.,.F.,.F.,(4,4),(0.,0.000876401013938957),.UNSPECIFIED.);
#33=PLANE('',#662);
#34=PLANE('',#666);
#35=PLANE('',#676);
#36=PLANE('',#677);
#37=PLANE('',#678);
#38=PLANE('',#682);
#39=PLANE('',#690);
#40=PLANE('',#698);
#41=PLANE('',#702);
#42=PLANE('',#709);
#43=PLANE('',#713);
#44=PLANE('',#715);
#45=PLANE('',#716);
#46=LINE('',#924,#98);
#47=LINE('',#929,#99);
#48=LINE('',#933,#100);
#49=LINE('',#939,#101);
#50=LINE('',#942,#102);
#51=LINE('',#943,#103);
#52=LINE('',#945,#104);
#53=LINE('',#947,#105);
#54=LINE('',#949,#106);
#55=LINE('',#951,#107);
#56=LINE('',#973,#108);
#57=LINE('',#978,#109);
#58=LINE('',#982,#110);
#59=LINE('',#985,#111);
#60=LINE('',#987,#112);
#61=LINE('',#989,#113);
#62=LINE('',#991,#114);
#63=LINE('',#993,#115);
#64=LINE('',#995,#116);
#65=LINE('',#997,#117);
#66=LINE('',#999,#118);
#67=LINE('',#1005,#119);
#68=LINE('',#1011,#120);
#69=LINE('',#1017,#121);
#70=LINE('',#1020,#122);
#71=LINE('',#1021,#123);
#72=LINE('',#1023,#124);
#73=LINE('',#1026,#125);
#74=LINE('',#1027,#126);
#75=LINE('',#1029,#127);
#76=LINE('',#1031,#128);
#77=LINE('',#1033,#129);
#78=LINE('',#1035,#130);
#79=LINE('',#1037,#131);
#80=LINE('',#1040,#132);
#81=LINE('',#1041,#133);
#82=LINE('',#1052,#134);
#83=LINE('',#1053,#135);
#84=LINE('',#1073,#136);
#85=LINE('',#1074,#137);
#86=LINE('',#1078,#138);
#87=LINE('',#1080,#139);
#88=LINE('',#1082,#140);
#89=LINE('',#1085,#141);
#90=LINE('',#1087,#142);
#91=LINE('',#1089,#143);
#92=LINE('',#1092,#144);
#93=LINE('',#1094,#145);
#94=LINE('',#1096,#146);
#95=LINE('',#1099,#147);
#96=LINE('',#1101,#148);
#97=LINE('',#1103,#149);
#98=VECTOR('',#733,1.);
#99=VECTOR('',#736,1.);
#100=VECTOR('',#741,1.);
#101=VECTOR('',#748,1.);
#102=VECTOR('',#749,1.);
#103=VECTOR('',#750,1.);
#104=VECTOR('',#751,1.);
#105=VECTOR('',#752,1.);
#106=VECTOR('',#753,1.);
#107=VECTOR('',#754,1.);
#108=VECTOR('',#757,1.);
#109=VECTOR('',#760,1.);
#110=VECTOR('',#765,1.);
#111=VECTOR('',#766,1.);
#112=VECTOR('',#767,1.);
#113=VECTOR('',#768,1.);
#114=VECTOR('',#769,1.);
#115=VECTOR('',#770,1.);
#116=VECTOR('',#771,1.);
#117=VECTOR('',#772,1.);
#118=VECTOR('',#775,1.);
#119=VECTOR('',#782,1.);
#120=VECTOR('',#789,1.);
#121=VECTOR('',#796,1.);
#122=VECTOR('',#797,1.);
#123=VECTOR('',#798,1.);
#124=VECTOR('',#801,1.);
#125=VECTOR('',#802,1.);
#126=VECTOR('',#803,1.);
#127=VECTOR('',#804,1.);
#128=VECTOR('',#805,1.);
#129=VECTOR('',#806,1.);
#130=VECTOR('',#807,1.);
#131=VECTOR('',#810,1.);
#132=VECTOR('',#811,1.);
#133=VECTOR('',#812,1.);
#134=VECTOR('',#827,1.);
#135=VECTOR('',#828,1.);
#136=VECTOR('',#851,1.);
#137=VECTOR('',#852,1.);
#138=VECTOR('',#857,1.);
#139=VECTOR('',#860,1.);
#140=VECTOR('',#863,1.);
#141=VECTOR('',#868,1.);
#142=VECTOR('',#871,1.);
#143=VECTOR('',#874,1.);
#144=VECTOR('',#879,1.);
#145=VECTOR('',#882,1.);
#146=VECTOR('',#885,1.);
#147=VECTOR('',#890,1.);
#148=VECTOR('',#893,1.);
#149=VECTOR('',#896,1.);
#150=ORIENTED_EDGE('',*,*,#330,.T.);
#151=ORIENTED_EDGE('',*,*,#331,.T.);
#152=ORIENTED_EDGE('',*,*,#332,.F.);
#153=ORIENTED_EDGE('',*,*,#333,.T.);
#154=ORIENTED_EDGE('',*,*,#334,.T.);
#155=ORIENTED_EDGE('',*,*,#335,.T.);
#156=ORIENTED_EDGE('',*,*,#336,.F.);
#157=ORIENTED_EDGE('',*,*,#337,.T.);
#158=ORIENTED_EDGE('',*,*,#332,.T.);
#159=ORIENTED_EDGE('',*,*,#338,.T.);
#160=ORIENTED_EDGE('',*,*,#339,.T.);
#161=ORIENTED_EDGE('',*,*,#340,.T.);
#162=ORIENTED_EDGE('',*,*,#336,.T.);
#163=ORIENTED_EDGE('',*,*,#341,.T.);
#164=ORIENTED_EDGE('',*,*,#342,.F.);
#165=ORIENTED_EDGE('',*,*,#343,.T.);
#166=ORIENTED_EDGE('',*,*,#344,.T.);
#167=ORIENTED_EDGE('',*,*,#345,.T.);
#168=ORIENTED_EDGE('',*,*,#346,.T.);
#169=ORIENTED_EDGE('',*,*,#347,.T.);
#170=ORIENTED_EDGE('',*,*,#348,.T.);
#171=ORIENTED_EDGE('',*,*,#349,.T.);
#172=ORIENTED_EDGE('',*,*,#350,.T.);
#173=ORIENTED_EDGE('',*,*,#351,.T.);
#174=ORIENTED_EDGE('',*,*,#352,.F.);
#175=ORIENTED_EDGE('',*,*,#353,.T.);
#176=ORIENTED_EDGE('',*,*,#354,.T.);
#177=ORIENTED_EDGE('',*,*,#355,.T.);
#178=ORIENTED_EDGE('',*,*,#356,.T.);
#179=ORIENTED_EDGE('',*,*,#357,.T.);
#180=ORIENTED_EDGE('',*,*,#358,.F.);
#181=ORIENTED_EDGE('',*,*,#359,.T.);
#182=ORIENTED_EDGE('',*,*,#360,.F.);
#183=ORIENTED_EDGE('',*,*,#361,.T.);
#184=ORIENTED_EDGE('',*,*,#352,.T.);
#185=ORIENTED_EDGE('',*,*,#362,.T.);
#186=ORIENTED_EDGE('',*,*,#363,.F.);
#187=ORIENTED_EDGE('',*,*,#364,.T.);
#188=ORIENTED_EDGE('',*,*,#360,.T.);
#189=ORIENTED_EDGE('',*,*,#365,.T.);
#190=ORIENTED_EDGE('',*,*,#366,.F.);
#191=ORIENTED_EDGE('',*,*,#367,.T.);
#192=ORIENTED_EDGE('',*,*,#363,.T.);
#193=ORIENTED_EDGE('',*,*,#368,.T.);
#194=ORIENTED_EDGE('',*,*,#369,.F.);
#195=ORIENTED_EDGE('',*,*,#370,.T.);
#196=ORIENTED_EDGE('',*,*,#366,.T.);
#197=ORIENTED_EDGE('',*,*,#371,.T.);
#198=ORIENTED_EDGE('',*,*,#331,.F.);
#199=ORIENTED_EDGE('',*,*,#372,.T.);
#200=ORIENTED_EDGE('',*,*,#373,.T.);
#201=ORIENTED_EDGE('',*,*,#369,.T.);
#202=ORIENTED_EDGE('',*,*,#374,.T.);
#203=ORIENTED_EDGE('',*,*,#375,.F.);
#204=ORIENTED_EDGE('',*,*,#376,.T.);
#205=ORIENTED_EDGE('',*,*,#377,.F.);
#206=ORIENTED_EDGE('',*,*,#378,.T.);
#207=ORIENTED_EDGE('',*,*,#379,.F.);
#208=ORIENTED_EDGE('',*,*,#380,.T.);
#209=ORIENTED_EDGE('',*,*,#377,.T.);
#210=ORIENTED_EDGE('',*,*,#381,.T.);
#211=ORIENTED_EDGE('',*,*,#334,.F.);
#212=ORIENTED_EDGE('',*,*,#382,.T.);
#213=ORIENTED_EDGE('',*,*,#379,.T.);
#214=ORIENTED_EDGE('',*,*,#383,.T.);
#215=ORIENTED_EDGE('',*,*,#354,.F.);
#216=ORIENTED_EDGE('',*,*,#384,.T.);
#217=ORIENTED_EDGE('',*,*,#385,.T.);
#218=ORIENTED_EDGE('',*,*,#386,.T.);
#219=ORIENTED_EDGE('',*,*,#387,.T.);
#220=ORIENTED_EDGE('',*,*,#372,.F.);
#221=ORIENTED_EDGE('',*,*,#388,.T.);
#222=ORIENTED_EDGE('',*,*,#389,.T.);
#223=ORIENTED_EDGE('',*,*,#390,.T.);
#224=ORIENTED_EDGE('',*,*,#391,.T.);
#225=ORIENTED_EDGE('',*,*,#339,.F.);
#226=ORIENTED_EDGE('',*,*,#392,.T.);
#227=ORIENTED_EDGE('',*,*,#393,.T.);
#228=ORIENTED_EDGE('',*,*,#394,.T.);
#229=ORIENTED_EDGE('',*,*,#358,.T.);
#230=ORIENTED_EDGE('',*,*,#395,.T.);
#231=ORIENTED_EDGE('',*,*,#342,.T.);
#232=ORIENTED_EDGE('',*,*,#396,.T.);
#233=ORIENTED_EDGE('',*,*,#397,.T.);
#234=ORIENTED_EDGE('',*,*,#398,.T.);
#235=ORIENTED_EDGE('',*,*,#399,.T.);
#236=ORIENTED_EDGE('',*,*,#375,.T.);
#237=ORIENTED_EDGE('',*,*,#400,.T.);
#238=ORIENTED_EDGE('',*,*,#401,.T.);
#239=ORIENTED_EDGE('',*,*,#373,.F.);
#240=ORIENTED_EDGE('',*,*,#387,.F.);
#241=ORIENTED_EDGE('',*,*,#402,.F.);
#242=ORIENTED_EDGE('',*,*,#370,.F.);
#243=ORIENTED_EDGE('',*,*,#402,.T.);
#244=ORIENTED_EDGE('',*,*,#386,.F.);
#245=ORIENTED_EDGE('',*,*,#403,.F.);
#246=ORIENTED_EDGE('',*,*,#367,.F.);
#247=ORIENTED_EDGE('',*,*,#403,.T.);
#248=ORIENTED_EDGE('',*,*,#385,.F.);
#249=ORIENTED_EDGE('',*,*,#404,.F.);
#250=ORIENTED_EDGE('',*,*,#364,.F.);
#251=ORIENTED_EDGE('',*,*,#404,.T.);
#252=ORIENTED_EDGE('',*,*,#384,.F.);
#253=ORIENTED_EDGE('',*,*,#353,.F.);
#254=ORIENTED_EDGE('',*,*,#361,.F.);
#255=ORIENTED_EDGE('',*,*,#374,.F.);
#256=ORIENTED_EDGE('',*,*,#371,.F.);
#257=ORIENTED_EDGE('',*,*,#405,.F.);
#258=ORIENTED_EDGE('',*,*,#400,.F.);
#259=ORIENTED_EDGE('',*,*,#405,.T.);
#260=ORIENTED_EDGE('',*,*,#368,.F.);
#261=ORIENTED_EDGE('',*,*,#406,.F.);
#262=ORIENTED_EDGE('',*,*,#401,.F.);
#263=ORIENTED_EDGE('',*,*,#406,.T.);
#264=ORIENTED_EDGE('',*,*,#365,.F.);
#265=ORIENTED_EDGE('',*,*,#407,.F.);
#266=ORIENTED_EDGE('',*,*,#393,.F.);
#267=ORIENTED_EDGE('',*,*,#407,.T.);
#268=ORIENTED_EDGE('',*,*,#362,.F.);
#269=ORIENTED_EDGE('',*,*,#359,.F.);
#270=ORIENTED_EDGE('',*,*,#394,.F.);
#271=ORIENTED_EDGE('',*,*,#340,.F.);
#272=ORIENTED_EDGE('',*,*,#391,.F.);
#273=ORIENTED_EDGE('',*,*,#408,.F.);
#274=ORIENTED_EDGE('',*,*,#337,.F.);
#275=ORIENTED_EDGE('',*,*,#408,.T.);
#276=ORIENTED_EDGE('',*,*,#390,.F.);
#277=ORIENTED_EDGE('',*,*,#409,.F.);
#278=ORIENTED_EDGE('',*,*,#333,.F.);
#279=ORIENTED_EDGE('',*,*,#409,.T.);
#280=ORIENTED_EDGE('',*,*,#389,.F.);
#281=ORIENTED_EDGE('',*,*,#410,.F.);
#282=ORIENTED_EDGE('',*,*,#382,.F.);
#283=ORIENTED_EDGE('',*,*,#410,.T.);
#284=ORIENTED_EDGE('',*,*,#388,.F.);
#285=ORIENTED_EDGE('',*,*,#378,.F.);
#286=ORIENTED_EDGE('',*,*,#380,.F.);
#287=ORIENTED_EDGE('',*,*,#341,.F.);
#288=ORIENTED_EDGE('',*,*,#338,.F.);
#289=ORIENTED_EDGE('',*,*,#411,.F.);
#290=ORIENTED_EDGE('',*,*,#396,.F.);
#291=ORIENTED_EDGE('',*,*,#411,.T.);
#292=ORIENTED_EDGE('',*,*,#335,.F.);
#293=ORIENTED_EDGE('',*,*,#412,.F.);
#294=ORIENTED_EDGE('',*,*,#397,.F.);
#295=ORIENTED_EDGE('',*,*,#412,.T.);
#296=ORIENTED_EDGE('',*,*,#383,.F.);
#297=ORIENTED_EDGE('',*,*,#413,.F.);
#298=ORIENTED_EDGE('',*,*,#398,.F.);
#299=ORIENTED_EDGE('',*,*,#413,.T.);
#300=ORIENTED_EDGE('',*,*,#381,.F.);
#301=ORIENTED_EDGE('',*,*,#376,.F.);
#302=ORIENTED_EDGE('',*,*,#399,.F.);
#303=ORIENTED_EDGE('',*,*,#414,.F.);
#304=ORIENTED_EDGE('',*,*,#351,.F.);
#305=ORIENTED_EDGE('',*,*,#415,.F.);
#306=ORIENTED_EDGE('',*,*,#343,.F.);
#307=ORIENTED_EDGE('',*,*,#395,.F.);
#308=ORIENTED_EDGE('',*,*,#357,.F.);
#309=ORIENTED_EDGE('',*,*,#415,.T.);
#310=ORIENTED_EDGE('',*,*,#350,.F.);
#311=ORIENTED_EDGE('',*,*,#416,.F.);
#312=ORIENTED_EDGE('',*,*,#344,.F.);
#313=ORIENTED_EDGE('',*,*,#414,.T.);
#314=ORIENTED_EDGE('',*,*,#356,.F.);
#315=ORIENTED_EDGE('',*,*,#417,.F.);
#316=ORIENTED_EDGE('',*,*,#348,.F.);
#317=ORIENTED_EDGE('',*,*,#416,.T.);
#318=ORIENTED_EDGE('',*,*,#349,.F.);
#319=ORIENTED_EDGE('',*,*,#417,.T.);
#320=ORIENTED_EDGE('',*,*,#355,.F.);
#321=ORIENTED_EDGE('',*,*,#392,.F.);
#322=ORIENTED_EDGE('',*,*,#345,.F.);
#323=ORIENTED_EDGE('',*,*,#418,.T.);
#324=ORIENTED_EDGE('',*,*,#347,.F.);
#325=ORIENTED_EDGE('',*,*,#419,.T.);
#326=ORIENTED_EDGE('',*,*,#346,.F.);
#327=ORIENTED_EDGE('',*,*,#330,.F.);
#328=ORIENTED_EDGE('',*,*,#418,.F.);
#329=ORIENTED_EDGE('',*,*,#419,.F.);
#330=EDGE_CURVE('',#420,#420,#476,.F.);
#331=EDGE_CURVE('',#421,#421,#477,.T.);
#332=EDGE_CURVE('',#422,#423,#46,.T.);
#333=EDGE_CURVE('',#422,#424,#478,.T.);
#334=EDGE_CURVE('',#424,#425,#47,.T.);
#335=EDGE_CURVE('',#425,#423,#479,.F.);
#336=EDGE_CURVE('',#426,#427,#48,.T.);
#337=EDGE_CURVE('',#426,#422,#480,.F.);
#338=EDGE_CURVE('',#423,#427,#481,.T.);
#339=EDGE_CURVE('',#428,#429,#49,.T.);
#340=EDGE_CURVE('',#429,#426,#50,.T.);
#341=EDGE_CURVE('',#427,#430,#51,.T.);
#342=EDGE_CURVE('',#431,#430,#52,.T.);
#343=EDGE_CURVE('',#431,#432,#53,.F.);
#344=EDGE_CURVE('',#432,#433,#54,.T.);
#345=EDGE_CURVE('',#433,#428,#55,.F.);
#346=EDGE_CURVE('',#434,#435,#27,.T.);
#347=EDGE_CURVE('',#435,#434,#28,.T.);
#348=EDGE_CURVE('',#436,#437,#56,.F.);
#349=EDGE_CURVE('',#437,#438,#482,.T.);
#350=EDGE_CURVE('',#438,#439,#57,.T.);
#351=EDGE_CURVE('',#439,#436,#483,.F.);
#352=EDGE_CURVE('',#440,#441,#58,.T.);
#353=EDGE_CURVE('',#440,#442,#59,.T.);
#354=EDGE_CURVE('',#442,#443,#60,.T.);
#355=EDGE_CURVE('',#443,#444,#61,.F.);
#356=EDGE_CURVE('',#444,#445,#62,.T.);
#357=EDGE_CURVE('',#445,#446,#63,.F.);
#358=EDGE_CURVE('',#447,#446,#64,.T.);
#359=EDGE_CURVE('',#447,#441,#65,.T.);
#360=EDGE_CURVE('',#448,#449,#66,.T.);
#361=EDGE_CURVE('',#448,#440,#484,.F.);
#362=EDGE_CURVE('',#441,#449,#485,.T.);
#363=EDGE_CURVE('',#450,#451,#67,.T.);
#364=EDGE_CURVE('',#450,#448,#486,.T.);
#365=EDGE_CURVE('',#449,#451,#487,.F.);
#366=EDGE_CURVE('',#452,#453,#68,.T.);
#367=EDGE_CURVE('',#452,#450,#488,.F.);
#368=EDGE_CURVE('',#451,#453,#489,.T.);
#369=EDGE_CURVE('',#454,#455,#69,.T.);
#370=EDGE_CURVE('',#454,#452,#70,.T.);
#371=EDGE_CURVE('',#453,#455,#71,.T.);
#372=EDGE_CURVE('',#456,#457,#72,.T.);
#373=EDGE_CURVE('',#457,#454,#73,.T.);
#374=EDGE_CURVE('',#455,#458,#74,.F.);
#375=EDGE_CURVE('',#459,#458,#75,.T.);
#376=EDGE_CURVE('',#459,#460,#76,.T.);
#377=EDGE_CURVE('',#461,#460,#77,.T.);
#378=EDGE_CURVE('',#461,#456,#78,.F.);
#379=EDGE_CURVE('',#462,#463,#79,.T.);
#380=EDGE_CURVE('',#462,#461,#80,.T.);
#381=EDGE_CURVE('',#460,#463,#81,.T.);
#382=EDGE_CURVE('',#424,#462,#490,.F.);
#383=EDGE_CURVE('',#463,#425,#491,.T.);
#384=EDGE_CURVE('',#442,#464,#492,.T.);
#385=EDGE_CURVE('',#464,#465,#493,.F.);
#386=EDGE_CURVE('',#465,#466,#494,.T.);
#387=EDGE_CURVE('',#466,#457,#82,.T.);
#388=EDGE_CURVE('',#456,#467,#83,.T.);
#389=EDGE_CURVE('',#467,#468,#495,.T.);
#390=EDGE_CURVE('',#468,#469,#496,.F.);
#391=EDGE_CURVE('',#469,#429,#497,.T.);
#392=EDGE_CURVE('',#428,#443,#498,.F.);
#393=EDGE_CURVE('',#470,#471,#499,.T.);
#394=EDGE_CURVE('',#471,#447,#500,.F.);
#395=EDGE_CURVE('',#446,#431,#501,.T.);
#396=EDGE_CURVE('',#430,#472,#502,.F.);
#397=EDGE_CURVE('',#472,#473,#503,.T.);
#398=EDGE_CURVE('',#473,#474,#504,.F.);
#399=EDGE_CURVE('',#474,#459,#84,.T.);
#400=EDGE_CURVE('',#458,#475,#85,.T.);
#401=EDGE_CURVE('',#475,#470,#505,.F.);
#402=EDGE_CURVE('',#452,#466,#86,.T.);
#403=EDGE_CURVE('',#450,#465,#87,.T.);
#404=EDGE_CURVE('',#448,#464,#88,.T.);
#405=EDGE_CURVE('',#475,#453,#89,.T.);
#406=EDGE_CURVE('',#470,#451,#90,.T.);
#407=EDGE_CURVE('',#471,#449,#91,.T.);
#408=EDGE_CURVE('',#422,#469,#92,.T.);
#409=EDGE_CURVE('',#424,#468,#93,.T.);
#410=EDGE_CURVE('',#462,#467,#94,.T.);
#411=EDGE_CURVE('',#472,#423,#95,.T.);
#412=EDGE_CURVE('',#473,#425,#96,.T.);
#413=EDGE_CURVE('',#474,#463,#97,.T.);
#414=EDGE_CURVE('',#436,#445,#29,.F.);
#415=EDGE_CURVE('',#432,#439,#30,.T.);
#416=EDGE_CURVE('',#433,#438,#31,.F.);
#417=EDGE_CURVE('',#437,#444,#32,.F.);
#418=EDGE_CURVE('',#435,#434,#506,.T.);
#419=EDGE_CURVE('',#434,#435,#507,.T.);
#420=VERTEX_POINT('',#920);
#421=VERTEX_POINT('',#922);
#422=VERTEX_POINT('',#925);
#423=VERTEX_POINT('',#926);
#424=VERTEX_POINT('',#928);
#425=VERTEX_POINT('',#930);
#426=VERTEX_POINT('',#934);
#427=VERTEX_POINT('',#935);
#428=VERTEX_POINT('',#940);
#429=VERTEX_POINT('',#941);
#430=VERTEX_POINT('',#944);
#431=VERTEX_POINT('',#946);
#432=VERTEX_POINT('',#948);
#433=VERTEX_POINT('',#950);
#434=VERTEX_POINT('',#962);
#435=VERTEX_POINT('',#963);
#436=VERTEX_POINT('',#974);
#437=VERTEX_POINT('',#975);
#438=VERTEX_POINT('',#977);
#439=VERTEX_POINT('',#979);
#440=VERTEX_POINT('',#983);
#441=VERTEX_POINT('',#984);
#442=VERTEX_POINT('',#986);
#443=VERTEX_POINT('',#988);
#444=VERTEX_POINT('',#990);
#445=VERTEX_POINT('',#992);
#446=VERTEX_POINT('',#994);
#447=VERTEX_POINT('',#996);
#448=VERTEX_POINT('',#1000);
#449=VERTEX_POINT('',#1001);
#450=VERTEX_POINT('',#1006);
#451=VERTEX_POINT('',#1007);
#452=VERTEX_POINT('',#1012);
#453=VERTEX_POINT('',#1013);
#454=VERTEX_POINT('',#1018);
#455=VERTEX_POINT('',#1019);
#456=VERTEX_POINT('',#1024);
#457=VERTEX_POINT('',#1025);
#458=VERTEX_POINT('',#1028);
#459=VERTEX_POINT('',#1030);
#460=VERTEX_POINT('',#1032);
#461=VERTEX_POINT('',#1034);
#462=VERTEX_POINT('',#1038);
#463=VERTEX_POINT('',#1039);
#464=VERTEX_POINT('',#1047);
#465=VERTEX_POINT('',#1049);
#466=VERTEX_POINT('',#1051);
#467=VERTEX_POINT('',#1054);
#468=VERTEX_POINT('',#1056);
#469=VERTEX_POINT('',#1058);
#470=VERTEX_POINT('',#1063);
#471=VERTEX_POINT('',#1064);
#472=VERTEX_POINT('',#1068);
#473=VERTEX_POINT('',#1070);
#474=VERTEX_POINT('',#1072);
#475=VERTEX_POINT('',#1075);
#476=CIRCLE('',#654,0.002);
#477=CIRCLE('',#655,0.002);
#478=CIRCLE('',#657,0.00293413173706889);
#479=CIRCLE('',#658,0.00293413173706889);
#480=CIRCLE('',#660,0.0167);
#481=CIRCLE('',#661,0.0167);
#482=CIRCLE('',#664,0.0137);
#483=CIRCLE('',#665,0.0137);
#484=CIRCLE('',#668,0.0167);
#485=CIRCLE('',#669,0.0167);
#486=CIRCLE('',#671,0.00293413173598499);
#487=CIRCLE('',#672,0.00293413173598499);
#488=CIRCLE('',#674,0.001);
#489=CIRCLE('',#675,0.001);
#490=CIRCLE('',#680,0.001);
#491=CIRCLE('',#681,0.001);
#492=CIRCLE('',#683,0.0162);
#493=CIRCLE('',#684,0.00343413173598499);
#494=CIRCLE('',#685,0.0005);
#495=CIRCLE('',#686,0.0005);
#496=CIRCLE('',#687,0.00343413173706889);
#497=CIRCLE('',#688,0.0162);
#498=CIRCLE('',#689,0.0142094634314292);
#499=CIRCLE('',#691,0.003434131735985);
#500=CIRCLE('',#692,0.0162);
#501=CIRCLE('',#693,0.0142094634314292);
#502=CIRCLE('',#694,0.0162);
#503=CIRCLE('',#695,0.00343413173706889);
#504=CIRCLE('',#696,0.0005);
#505=CIRCLE('',#697,0.0005);
#506=CIRCLE('',#719,0.0045);
#507=CIRCLE('',#721,0.0045);
#508=EDGE_LOOP('',(#150));
#509=EDGE_LOOP('',(#151));
#510=EDGE_LOOP('',(#152,#153,#154,#155));
#511=EDGE_LOOP('',(#156,#157,#158,#159));
#512=EDGE_LOOP('',(#160,#161,#162,#163,#164,#165,#166,#167));
#513=EDGE_LOOP('',(#168,#169));
#514=EDGE_LOOP('',(#170,#171,#172,#173));
#515=EDGE_LOOP('',(#174,#175,#176,#177,#178,#179,#180,#181));
#516=EDGE_LOOP('',(#182,#183,#184,#185));
#517=EDGE_LOOP('',(#186,#187,#188,#189));
#518=EDGE_LOOP('',(#190,#191,#192,#193));
#519=EDGE_LOOP('',(#194,#195,#196,#197));
#520=EDGE_LOOP('',(#198));
#521=EDGE_LOOP('',(#199,#200,#201,#202,#203,#204,#205,#206));
#522=EDGE_LOOP('',(#207,#208,#209,#210));
#523=EDGE_LOOP('',(#211,#212,#213,#214));
#524=EDGE_LOOP('',(#215,#216,#217,#218,#219,#220,#221,#222,#223,#224,#225,
#226));
#525=EDGE_LOOP('',(#227,#228,#229,#230,#231,#232,#233,#234,#235,#236,#237,
#238));
#526=EDGE_LOOP('',(#239,#240,#241,#242));
#527=EDGE_LOOP('',(#243,#244,#245,#246));
#528=EDGE_LOOP('',(#247,#248,#249,#250));
#529=EDGE_LOOP('',(#251,#252,#253,#254));
#530=EDGE_LOOP('',(#255,#256,#257,#258));
#531=EDGE_LOOP('',(#259,#260,#261,#262));
#532=EDGE_LOOP('',(#263,#264,#265,#266));
#533=EDGE_LOOP('',(#267,#268,#269,#270));
#534=EDGE_LOOP('',(#271,#272,#273,#274));
#535=EDGE_LOOP('',(#275,#276,#277,#278));
#536=EDGE_LOOP('',(#279,#280,#281,#282));
#537=EDGE_LOOP('',(#283,#284,#285,#286));
#538=EDGE_LOOP('',(#287,#288,#289,#290));
#539=EDGE_LOOP('',(#291,#292,#293,#294));
#540=EDGE_LOOP('',(#295,#296,#297,#298));
#541=EDGE_LOOP('',(#299,#300,#301,#302));
#542=EDGE_LOOP('',(#303,#304,#305,#306,#307,#308));
#543=EDGE_LOOP('',(#309,#310,#311,#312));
#544=EDGE_LOOP('',(#313,#314,#315,#316));
#545=EDGE_LOOP('',(#317,#318,#319,#320,#321,#322));
#546=EDGE_LOOP('',(#323,#324));
#547=EDGE_LOOP('',(#325,#326));
#548=EDGE_LOOP('',(#327));
#549=EDGE_LOOP('',(#328,#329));
#550=FACE_BOUND('',#508,.T.);
#551=FACE_BOUND('',#509,.T.);
#552=FACE_BOUND('',#510,.T.);
#553=FACE_BOUND('',#511,.T.);
#554=FACE_BOUND('',#512,.T.);
#555=FACE_BOUND('',#513,.T.);
#556=FACE_BOUND('',#514,.T.);
#557=FACE_BOUND('',#515,.T.);
#558=FACE_BOUND('',#516,.T.);
#559=FACE_BOUND('',#517,.T.);
#560=FACE_BOUND('',#518,.T.);
#561=FACE_BOUND('',#519,.T.);
#562=FACE_BOUND('',#520,.T.);
#563=FACE_BOUND('',#521,.T.);
#564=FACE_BOUND('',#522,.T.);
#565=FACE_BOUND('',#523,.T.);
#566=FACE_BOUND('',#524,.T.);
#567=FACE_BOUND('',#525,.T.);
#568=FACE_BOUND('',#526,.T.);
#569=FACE_BOUND('',#527,.T.);
#570=FACE_BOUND('',#528,.T.);
#571=FACE_BOUND('',#529,.T.);
#572=FACE_BOUND('',#530,.T.);
#573=FACE_BOUND('',#531,.T.);
#574=FACE_BOUND('',#532,.T.);
#575=FACE_BOUND('',#533,.T.);
#576=FACE_BOUND('',#534,.T.);
#577=FACE_BOUND('',#535,.T.);
#578=FACE_BOUND('',#536,.T.);
#579=FACE_BOUND('',#537,.T.);
#580=FACE_BOUND('',#538,.T.);
#581=FACE_BOUND('',#539,.T.);
#582=FACE_BOUND('',#540,.T.);
#583=FACE_BOUND('',#541,.T.);
#584=FACE_BOUND('',#542,.T.);
#585=FACE_BOUND('',#543,.T.);
#586=FACE_BOUND('',#544,.T.);
#587=FACE_BOUND('',#545,.T.);
#588=FACE_BOUND('',#546,.T.);
#589=FACE_BOUND('',#547,.T.);
#590=FACE_BOUND('',#548,.T.);
#591=FACE_BOUND('',#549,.T.);
#592=CYLINDRICAL_SURFACE('',#653,0.002);
#593=CYLINDRICAL_SURFACE('',#656,0.00293413173706889);
#594=CYLINDRICAL_SURFACE('',#659,0.0167);
#595=CYLINDRICAL_SURFACE('',#663,0.0137);
#596=CYLINDRICAL_SURFACE('',#667,0.0167);
#597=CYLINDRICAL_SURFACE('',#670,0.00293413173598499);
#598=CYLINDRICAL_SURFACE('',#673,0.001);
#599=CYLINDRICAL_SURFACE('',#679,0.001);
#600=CYLINDRICAL_SURFACE('',#718,0.0045);
#601=CYLINDRICAL_SURFACE('',#720,0.0045);
#602=ADVANCED_FACE('',(#550,#551),#592,.F.);
#603=ADVANCED_FACE('',(#552),#593,.F.);
#604=ADVANCED_FACE('',(#553),#594,.T.);
#605=ADVANCED_FACE('',(#554),#33,.T.);
#606=ADVANCED_FACE('',(#555,#556),#595,.F.);
#607=ADVANCED_FACE('',(#557),#34,.T.);
#608=ADVANCED_FACE('',(#558),#596,.T.);
#609=ADVANCED_FACE('',(#559),#597,.F.);
#610=ADVANCED_FACE('',(#560),#598,.T.);
#611=ADVANCED_FACE('',(#561),#35,.F.);
#612=ADVANCED_FACE('',(#562,#563),#36,.T.);
#613=ADVANCED_FACE('',(#564),#37,.T.);
#614=ADVANCED_FACE('',(#565),#599,.T.);
#615=ADVANCED_FACE('',(#566),#38,.T.);
#616=ADVANCED_FACE('',(#567),#39,.F.);
#617=ADVANCED_FACE('',(#568),#40,.T.);
#618=ADVANCED_FACE('',(#569),#12,.T.);
#619=ADVANCED_FACE('',(#570),#13,.F.);
#620=ADVANCED_FACE('',(#571),#14,.T.);
#621=ADVANCED_FACE('',(#572),#41,.F.);
#622=ADVANCED_FACE('',(#573),#15,.T.);
#623=ADVANCED_FACE('',(#574),#16,.F.);
#624=ADVANCED_FACE('',(#575),#17,.T.);
#625=ADVANCED_FACE('',(#576),#18,.T.);
#626=ADVANCED_FACE('',(#577),#19,.F.);
#627=ADVANCED_FACE('',(#578),#20,.T.);
#628=ADVANCED_FACE('',(#579),#42,.F.);
#629=ADVANCED_FACE('',(#580),#21,.T.);
#630=ADVANCED_FACE('',(#581),#22,.F.);
#631=ADVANCED_FACE('',(#582),#23,.T.);
#632=ADVANCED_FACE('',(#583),#43,.T.);
#633=ADVANCED_FACE('',(#584),#24,.F.);
#634=ADVANCED_FACE('',(#585),#44,.F.);
#635=ADVANCED_FACE('',(#586),#45,.F.);
#636=ADVANCED_FACE('',(#587),#25,.F.);
#637=ADVANCED_FACE('',(#588),#600,.F.);
#638=ADVANCED_FACE('',(#589),#601,.F.);
#639=ADVANCED_FACE('',(#590,#591),#26,.F.);
#640=CLOSED_SHELL('',(#602,#603,#604,#605,#606,#607,#608,#609,#610,#611,
#612,#613,#614,#615,#616,#617,#618,#619,#620,#621,#622,#623,#624,#625,#626,
#627,#628,#629,#630,#631,#632,#633,#634,#635,#636,#637,#638,#639));
#641=STYLED_ITEM('',(#642),#649);
#642=PRESENTATION_STYLE_ASSIGNMENT((#643));
#643=SURFACE_STYLE_USAGE(.BOTH.,#644);
#644=SURFACE_SIDE_STYLE('',(#645));
#645=SURFACE_STYLE_FILL_AREA(#646);
#646=FILL_AREA_STYLE('',(#647));
#647=FILL_AREA_STYLE_COLOUR('',#648);
#648=COLOUR_RGB('',0.615686274509804,0.811764705882353,0.929411764705882);
#649=MANIFOLD_SOLID_BREP('Part 1',#640);
#650=SHAPE_DEFINITION_REPRESENTATION(#1136,#651);
#651=SHAPE_REPRESENTATION('Part 1',(#652),#1131);
#652=AXIS2_PLACEMENT_3D('',#917,#723,#724);
#653=AXIS2_PLACEMENT_3D('',#918,#725,#726);
#654=AXIS2_PLACEMENT_3D('',#919,#727,#728);
#655=AXIS2_PLACEMENT_3D('',#921,#729,#730);
#656=AXIS2_PLACEMENT_3D('',#923,#731,#732);
#657=AXIS2_PLACEMENT_3D('',#927,#734,#735);
#658=AXIS2_PLACEMENT_3D('',#931,#737,#738);
#659=AXIS2_PLACEMENT_3D('',#932,#739,#740);
#660=AXIS2_PLACEMENT_3D('',#936,#742,#743);
#661=AXIS2_PLACEMENT_3D('',#937,#744,#745);
#662=AXIS2_PLACEMENT_3D('',#938,#746,#747);
#663=AXIS2_PLACEMENT_3D('',#952,#755,#756);
#664=AXIS2_PLACEMENT_3D('',#976,#758,#759);
#665=AXIS2_PLACEMENT_3D('',#980,#761,#762);
#666=AXIS2_PLACEMENT_3D('',#981,#763,#764);
#667=AXIS2_PLACEMENT_3D('',#998,#773,#774);
#668=AXIS2_PLACEMENT_3D('',#1002,#776,#777);
#669=AXIS2_PLACEMENT_3D('',#1003,#778,#779);
#670=AXIS2_PLACEMENT_3D('',#1004,#780,#781);
#671=AXIS2_PLACEMENT_3D('',#1008,#783,#784);
#672=AXIS2_PLACEMENT_3D('',#1009,#785,#786);
#673=AXIS2_PLACEMENT_3D('',#1010,#787,#788);
#674=AXIS2_PLACEMENT_3D('',#1014,#790,#791);
#675=AXIS2_PLACEMENT_3D('',#1015,#792,#793);
#676=AXIS2_PLACEMENT_3D('',#1016,#794,#795);
#677=AXIS2_PLACEMENT_3D('',#1022,#799,#800);
#678=AXIS2_PLACEMENT_3D('',#1036,#808,#809);
#679=AXIS2_PLACEMENT_3D('',#1042,#813,#814);
#680=AXIS2_PLACEMENT_3D('',#1043,#815,#816);
#681=AXIS2_PLACEMENT_3D('',#1044,#817,#818);
#682=AXIS2_PLACEMENT_3D('',#1045,#819,#820);
#683=AXIS2_PLACEMENT_3D('',#1046,#821,#822);
#684=AXIS2_PLACEMENT_3D('',#1048,#823,#824);
#685=AXIS2_PLACEMENT_3D('',#1050,#825,#826);
#686=AXIS2_PLACEMENT_3D('',#1055,#829,#830);
#687=AXIS2_PLACEMENT_3D('',#1057,#831,#832);
#688=AXIS2_PLACEMENT_3D('',#1059,#833,#834);
#689=AXIS2_PLACEMENT_3D('',#1060,#835,#836);
#690=AXIS2_PLACEMENT_3D('',#1061,#837,#838);
#691=AXIS2_PLACEMENT_3D('',#1062,#839,#840);
#692=AXIS2_PLACEMENT_3D('',#1065,#841,#842);
#693=AXIS2_PLACEMENT_3D('',#1066,#843,#844);
#694=AXIS2_PLACEMENT_3D('',#1067,#845,#846);
#695=AXIS2_PLACEMENT_3D('',#1069,#847,#848);
#696=AXIS2_PLACEMENT_3D('',#1071,#849,#850);
#697=AXIS2_PLACEMENT_3D('',#1076,#853,#854);
#698=AXIS2_PLACEMENT_3D('',#1077,#855,#856);
#699=AXIS2_PLACEMENT_3D('',#1079,#858,#859);
#700=AXIS2_PLACEMENT_3D('',#1081,#861,#862);
#701=AXIS2_PLACEMENT_3D('',#1083,#864,#865);
#702=AXIS2_PLACEMENT_3D('',#1084,#866,#867);
#703=AXIS2_PLACEMENT_3D('',#1086,#869,#870);
#704=AXIS2_PLACEMENT_3D('',#1088,#872,#873);
#705=AXIS2_PLACEMENT_3D('',#1090,#875,#876);
#706=AXIS2_PLACEMENT_3D('',#1091,#877,#878);
#707=AXIS2_PLACEMENT_3D('',#1093,#880,#881);
#708=AXIS2_PLACEMENT_3D('',#1095,#883,#884);
#709=AXIS2_PLACEMENT_3D('',#1097,#886,#887);
#710=AXIS2_PLACEMENT_3D('',#1098,#888,#889);
#711=AXIS2_PLACEMENT_3D('',#1100,#891,#892);
#712=AXIS2_PLACEMENT_3D('',#1102,#894,#895);
#713=AXIS2_PLACEMENT_3D('',#1104,#897,#898);
#714=AXIS2_PLACEMENT_3D('',#1105,#899,#900);
#715=AXIS2_PLACEMENT_3D('',#1114,#901,#902);
#716=AXIS2_PLACEMENT_3D('',#1119,#903,#904);
#717=AXIS2_PLACEMENT_3D('',#1124,#905,#906);
#718=AXIS2_PLACEMENT_3D('',#1125,#907,#908);
#719=AXIS2_PLACEMENT_3D('',#1126,#909,#910);
#720=AXIS2_PLACEMENT_3D('',#1127,#911,#912);
#721=AXIS2_PLACEMENT_3D('',#1128,#913,#914);
#722=AXIS2_PLACEMENT_3D('',#1129,#915,#916);
#723=DIRECTION('',(0.,0.,1.));
#724=DIRECTION('',(1.,0.,0.));
#725=DIRECTION('',(0.,1.,0.));
#726=DIRECTION('',(0.,0.,1.));
#727=DIRECTION('',(0.,1.,0.));
#728=DIRECTION('',(0.,0.,1.));
#729=DIRECTION('',(0.,1.,0.));
#730=DIRECTION('',(0.,0.,1.));
#731=DIRECTION('',(-1.,0.,0.));
#732=DIRECTION('',(0.,0.,1.));
#733=DIRECTION('',(-1.,0.,0.));
#734=DIRECTION('',(1.,0.,0.));
#735=DIRECTION('',(0.,0.,-1.));
#736=DIRECTION('',(-1.,0.,0.));
#737=DIRECTION('',(1.,0.,0.));
#738=DIRECTION('',(0.,0.,-1.));
#739=DIRECTION('',(-1.,0.,0.));
#740=DIRECTION('',(0.,0.,1.));
#741=DIRECTION('',(-1.,0.,0.));
#742=DIRECTION('',(1.,0.,0.));
#743=DIRECTION('',(0.,0.,-1.));
#744=DIRECTION('',(1.,0.,0.));
#745=DIRECTION('',(0.,0.,-1.));
#746=DIRECTION('',(0.,-0.753947763554758,-0.656934372544761));
#747=DIRECTION('',(0.,0.656934372544761,-0.753947763554758));
#748=DIRECTION('',(0.,-0.656934372544761,0.753947763554758));
#749=DIRECTION('',(-0.707106781186548,-0.46452274962093,0.533121576270001));
#750=DIRECTION('',(-0.707106781186548,0.46452274962093,-0.533121576270001));
#751=DIRECTION('',(0.,-0.656934372544761,0.753947763554758));
#752=DIRECTION('',(-0.713300116833515,-0.460418182493367,0.528410863395899));
#753=DIRECTION('',(1.,0.,0.));
#754=DIRECTION('',(-0.713300116833516,0.460418182493366,-0.528410863395898));
#755=DIRECTION('',(-1.,0.,0.));
#756=DIRECTION('',(0.,0.,1.));
#757=DIRECTION('',(-1.,0.,0.));
#758=DIRECTION('',(1.,0.,0.));
#759=DIRECTION('',(0.,0.,-1.));
#760=DIRECTION('',(-1.,0.,0.));
#761=DIRECTION('',(1.,0.,0.));
#762=DIRECTION('',(0.,0.,-1.));
#763=DIRECTION('',(0.,-0.753947764121008,0.65693437189489));
#764=DIRECTION('',(0.,-0.65693437189489,-0.753947764121008));
#765=DIRECTION('',(-1.,0.,0.));
#766=DIRECTION('',(0.707106781186548,0.464522749161402,0.5331215766704));
#767=DIRECTION('',(0.,0.65693437189489,0.753947764121008));
#768=DIRECTION('',(0.713300116833516,-0.460418182037898,-0.528410863792759));
#769=DIRECTION('',(-1.,0.,0.));
#770=DIRECTION('',(0.713300116833515,0.460418182037899,0.52841086379276));
#771=DIRECTION('',(0.,0.65693437189489,0.753947764121008));
#772=DIRECTION('',(0.707106781186548,-0.464522749161402,-0.5331215766704));
#773=DIRECTION('',(-1.,0.,0.));
#774=DIRECTION('',(0.,0.,1.));
#775=DIRECTION('',(-1.,0.,0.));
#776=DIRECTION('',(1.,0.,0.));
#777=DIRECTION('',(0.,0.,-1.));
#778=DIRECTION('',(1.,0.,0.));
#779=DIRECTION('',(0.,0.,-1.));
#780=DIRECTION('',(-1.,0.,0.));
#781=DIRECTION('',(0.,0.,1.));
#782=DIRECTION('',(-1.,0.,0.));
#783=DIRECTION('',(1.,0.,0.));
#784=DIRECTION('',(0.,0.,-1.));
#785=DIRECTION('',(1.,0.,0.));
#786=DIRECTION('',(0.,0.,-1.));
#787=DIRECTION('',(-1.,0.,0.));
#788=DIRECTION('',(0.,0.,1.));
#789=DIRECTION('',(-1.,0.,0.));
#790=DIRECTION('',(1.,0.,0.));
#791=DIRECTION('',(0.,0.,-1.));
#792=DIRECTION('',(1.,0.,0.));
#793=DIRECTION('',(0.,0.,-1.));
#794=DIRECTION('',(0.,0.,1.));
#795=DIRECTION('',(1.,0.,0.));
#796=DIRECTION('',(-1.,0.,0.));
#797=DIRECTION('',(0.,-1.,0.));
#798=DIRECTION('',(0.,1.,0.));
#799=DIRECTION('',(0.,1.,0.));
#800=DIRECTION('',(0.,0.,1.));
#801=DIRECTION('',(0.,0.,-1.));
#802=DIRECTION('',(-0.707106781186548,0.,-0.707106781186548));
#803=DIRECTION('',(0.707106781186548,0.,-0.707106781186548));
#804=DIRECTION('',(0.,0.,-1.));
#805=DIRECTION('',(0.707106781186548,0.,0.707106781186548));
#806=DIRECTION('',(-1.,0.,0.));
#807=DIRECTION('',(-0.707106781186548,0.,0.707106781186548));
#808=DIRECTION('',(0.,0.,1.));
#809=DIRECTION('',(1.,0.,0.));
#810=DIRECTION('',(-1.,0.,0.));
#811=DIRECTION('',(0.,1.,0.));
#812=DIRECTION('',(0.,-1.,0.));
#813=DIRECTION('',(-1.,0.,0.));
#814=DIRECTION('',(0.,0.,1.));
#815=DIRECTION('',(1.,0.,0.));
#816=DIRECTION('',(0.,0.,-1.));
#817=DIRECTION('',(1.,0.,0.));
#818=DIRECTION('',(0.,0.,-1.));
#819=DIRECTION('',(1.,0.,0.));
#820=DIRECTION('',(0.,1.,0.));
#821=DIRECTION('',(1.,0.,0.));
#822=DIRECTION('',(0.,0.,-1.));
#823=DIRECTION('',(1.,0.,0.));
#824=DIRECTION('',(0.,0.,-1.));
#825=DIRECTION('',(1.,0.,0.));
#826=DIRECTION('',(0.,0.,-1.));
#827=DIRECTION('',(0.,1.,0.));
#828=DIRECTION('',(0.,-1.,0.));
#829=DIRECTION('',(1.,0.,0.));
#830=DIRECTION('',(0.,0.,-1.));
#831=DIRECTION('',(1.,0.,0.));
#832=DIRECTION('',(0.,0.,-1.));
#833=DIRECTION('',(1.,0.,0.));
#834=DIRECTION('',(0.,0.,-1.));
#835=DIRECTION('',(1.,0.,0.));
#836=DIRECTION('',(0.,0.,-1.));
#837=DIRECTION('',(1.,0.,0.));
#838=DIRECTION('',(0.,1.,0.));
#839=DIRECTION('',(1.,0.,0.));
#840=DIRECTION('',(0.,0.,-1.));
#841=DIRECTION('',(1.,0.,0.));
#842=DIRECTION('',(0.,0.,-1.));
#843=DIRECTION('',(1.,0.,0.));
#844=DIRECTION('',(0.,0.,-1.));
#845=DIRECTION('',(1.,0.,0.));
#846=DIRECTION('',(0.,0.,-1.));
#847=DIRECTION('',(1.,0.,0.));
#848=DIRECTION('',(0.,0.,-1.));
#849=DIRECTION('',(1.,0.,0.));
#850=DIRECTION('',(0.,0.,-1.));
#851=DIRECTION('',(0.,1.,0.));
#852=DIRECTION('',(0.,-1.,0.));
#853=DIRECTION('',(1.,0.,0.));
#854=DIRECTION('',(0.,0.,-1.));
#855=DIRECTION('',(0.707106781186548,0.,-0.707106781186548));
#856=DIRECTION('',(0.,-1.,0.));
#857=DIRECTION('',(0.707106781186548,0.,0.707106781186548));
#858=DIRECTION('',(-1.,0.,0.));
#859=DIRECTION('',(0.,0.,1.));
#860=DIRECTION('',(0.707106781186548,0.707106781186548,0.));
#861=DIRECTION('',(1.,0.,0.));
#862=DIRECTION('',(0.,0.,-1.));
#863=DIRECTION('',(0.707106781186549,-0.495766195790851,0.504198253776296));
#864=DIRECTION('',(-1.,0.,0.));
#865=DIRECTION('',(0.,0.,1.));
#866=DIRECTION('',(0.707106781186548,0.,0.707106781186548));
#867=DIRECTION('',(0.,1.,0.));
#868=DIRECTION('',(0.707106781186548,0.,-0.707106781186548));
#869=DIRECTION('',(1.,0.,0.));
#870=DIRECTION('',(0.,0.,-1.));
#871=DIRECTION('',(0.707106781186548,-0.707106781186548,0.));
#872=DIRECTION('',(-1.,0.,0.));
#873=DIRECTION('',(0.,0.,1.));
#874=DIRECTION('',(0.707106781186547,0.495766195790852,-0.504198253776297));
#875=DIRECTION('',(1.,0.,0.));
#876=DIRECTION('',(0.,0.,-1.));
#877=DIRECTION('',(-1.,0.,0.));
#878=DIRECTION('',(0.,0.,1.));
#879=DIRECTION('',(0.707106781186548,-0.495766195724447,-0.504198253841591));
#880=DIRECTION('',(1.,0.,0.));
#881=DIRECTION('',(0.,0.,-1.));
#882=DIRECTION('',(0.707106781186548,0.707106781186548,0.));
#883=DIRECTION('',(-1.,0.,0.));
#884=DIRECTION('',(0.,0.,1.));
#885=DIRECTION('',(0.707106781186548,0.,-0.707106781186548));
#886=DIRECTION('',(-0.707106781186548,0.,-0.707106781186548));
#887=DIRECTION('',(0.,1.,0.));
#888=DIRECTION('',(1.,0.,0.));
#889=DIRECTION('',(0.,0.,-1.));
#890=DIRECTION('',(0.707106781186548,0.495766195724447,0.504198253841591));
#891=DIRECTION('',(-1.,0.,0.));
#892=DIRECTION('',(0.,0.,1.));
#893=DIRECTION('',(0.707106781186548,-0.707106781186548,0.));
#894=DIRECTION('',(1.,0.,0.));
#895=DIRECTION('',(0.,0.,-1.));
#896=DIRECTION('',(0.707106781186549,0.,0.707106781186546));
#897=DIRECTION('',(-0.707106781186548,0.,0.707106781186548));
#898=DIRECTION('',(0.,-1.,0.));
#899=DIRECTION('',(-1.,0.,0.));
#900=DIRECTION('',(0.,0.,1.));
#901=DIRECTION('',(0.,0.0776989877423032,0.996976863976201));
#902=DIRECTION('',(-1.,0.,0.));
#903=DIRECTION('',(0.,0.0776989881946723,-0.996976863940946));
#904=DIRECTION('',(-1.,0.,0.));
#905=DIRECTION('',(1.,0.,0.));
#906=DIRECTION('',(0.,0.,-1.));
#907=DIRECTION('',(0.,1.,0.));
#908=DIRECTION('',(0.,0.,1.));
#909=DIRECTION('',(0.,1.,0.));
#910=DIRECTION('',(-1.,0.,-6.12323399581543E-17));
#911=DIRECTION('',(0.,1.,0.));
#912=DIRECTION('',(0.,0.,1.));
#913=DIRECTION('',(0.,1.,0.));
#914=DIRECTION('',(-1.,0.,-6.12323399581543E-17));
#915=DIRECTION('',(0.,-1.,0.));
#916=DIRECTION('',(0.,0.,-1.));
#917=CARTESIAN_POINT('',(0.,0.,0.));
#918=CARTESIAN_POINT('',(-8.67361737988404E-19,-0.0406814830024038,2.07901621982135E-13));
#919=CARTESIAN_POINT('',(-8.67361737988404E-19,0.0162,2.07901621982135E-13));
#920=CARTESIAN_POINT('',(-8.67361737988404E-19,0.0162,0.0020000000002079));
#921=CARTESIAN_POINT('',(-8.67361737988404E-19,0.0197,2.07901621982135E-13));
#922=CARTESIAN_POINT('',(-8.67361737988404E-19,0.0197,0.0020000000002079));
#923=CARTESIAN_POINT('',(0.015,0.0137658682629311,0.0140000000012929));
#924=CARTESIAN_POINT('',(0.015,0.0117086919385858,0.0119078349454171));
#925=CARTESIAN_POINT('',(0.0145,0.0117086919385858,0.0119078349454171));
#926=CARTESIAN_POINT('',(-0.0145,0.0117086919385858,0.0119078349454171));
#927=CARTESIAN_POINT('',(0.0145,0.0137658682629311,0.0140000000012929));
#928=CARTESIAN_POINT('',(0.0145,0.0167,0.0140000000012929));
#929=CARTESIAN_POINT('',(0.015,0.0167,0.0140000000012929));
#930=CARTESIAN_POINT('',(-0.0145,0.0167,0.0140000000012929));
#931=CARTESIAN_POINT('',(-0.0145,0.0137658682629311,0.0140000000012929));
#932=CARTESIAN_POINT('',(0.015,1.7347234759768E-18,2.60208521396521E-18));
#933=CARTESIAN_POINT('',(0.015,-0.0109708031176343,0.012590928438924));
#934=CARTESIAN_POINT('',(0.0145,-0.0109708031176343,0.012590928438924));
#935=CARTESIAN_POINT('',(-0.0145,-0.0109708031176343,0.012590928438924));
#936=CARTESIAN_POINT('',(0.0145,1.7347234759768E-18,2.60208521396521E-18));
#937=CARTESIAN_POINT('',(-0.0145,1.7347234759768E-18,2.60208521396521E-18));
#938=CARTESIAN_POINT('',(0.015,-0.00998540155881715,0.0114600067935919));
#939=CARTESIAN_POINT('',(0.015,-0.00998540155881715,0.0114600067935919));
#940=CARTESIAN_POINT('',(0.015,-0.00933468403966046,0.0107131939629987));
#941=CARTESIAN_POINT('',(0.015,-0.0106423359313619,0.0122139545571466));
#942=CARTESIAN_POINT('',(0.0312,9.03863191397734E-10,7.87559600322745E-10));
#943=CARTESIAN_POINT('',(-0.0312,9.03863191397734E-10,7.87559600322745E-10));
#944=CARTESIAN_POINT('',(-0.015,-0.0106423359313619,0.0122139545571466));
#945=CARTESIAN_POINT('',(-0.015,-0.00998540155881715,0.0114600067935919));
#946=CARTESIAN_POINT('',(-0.015,-0.00933468403966046,0.0107131939629987));
#947=CARTESIAN_POINT('',(-0.000538295154285272,9.03863193786403E-10,7.87559597423098E-10));
#948=CARTESIAN_POINT('',(-0.0149903685770531,-0.00932846718627238,0.0107060590300371));
#949=CARTESIAN_POINT('',(0.015,-0.00932846718627238,0.0107060590300371));
#950=CARTESIAN_POINT('',(0.0149903685770531,-0.00932846718627238,0.0107060590300371));
#951=CARTESIAN_POINT('',(0.000538295154285223,9.03863193786403E-10,7.87559597423098E-10));
#952=CARTESIAN_POINT('',(0.015,3.46944695195361E-18,-8.67361737988404E-19));
#953=CARTESIAN_POINT('',(-0.0045,0.0137,-9.15182936205866E-19));
#954=CARTESIAN_POINT('',(-0.00450000000005482,0.0137,0.00118641175047981));
#955=CARTESIAN_POINT('',(-0.00375935033640559,0.0134297896370701,0.0029353736030839));
#956=CARTESIAN_POINT('',(-0.00177865388618008,0.0130259991273678,0.00425988508645142));
#957=CARTESIAN_POINT('',(2.02220633072463E-6,0.0128967047355568,0.00462030274810239));
#958=CARTESIAN_POINT('',(0.00178092064023266,0.0130263479947741,0.00425890193649701));
#959=CARTESIAN_POINT('',(0.00376241281552124,0.0134306365862173,0.00293206965646473));
#960=CARTESIAN_POINT('',(0.00450000000005469,0.0137,0.00118375908864688));
#961=CARTESIAN_POINT('',(0.0045,0.0137,1.08345644331389E-18));
#962=CARTESIAN_POINT('',(-0.0045,0.0137,-8.67361737988404E-19));
#963=CARTESIAN_POINT('',(0.0045,0.0137,-8.67361737988404E-19));
#964=CARTESIAN_POINT('',(0.0045,0.0137,-6.51267032662913E-19));
#965=CARTESIAN_POINT('',(0.00449999999994533,0.0137,-0.00118333257107466));
#966=CARTESIAN_POINT('',(0.00375784560758745,0.0134291313625852,-0.00293920244463142));
#967=CARTESIAN_POINT('',(0.00177486818561259,0.0130255941181681,-0.00426081726739321));
#968=CARTESIAN_POINT('',(5.68541306282876E-7,0.0128969833459375,-0.00461955350264489));
#969=CARTESIAN_POINT('',(-0.0017760924930835,0.0130256378797986,-0.00426096870036866));
#970=CARTESIAN_POINT('',(-0.00376085847547854,0.0134299995344069,-0.0029348376150768));
#971=CARTESIAN_POINT('',(-0.00449999999994521,0.0137,-0.00118598427713297));
#972=CARTESIAN_POINT('',(-0.0045,0.0137,2.57882797121812E-18));
#973=CARTESIAN_POINT('',(0.015,-0.00861709493361034,-0.0106506185221867));
#974=CARTESIAN_POINT('',(-0.0144814927523077,-0.00861709493361034,-0.0106506185221867));
#975=CARTESIAN_POINT('',(0.0144814927523077,-0.00861709493361034,-0.0106506185221867));
#976=CARTESIAN_POINT('',(0.0144814927523077,3.46944695195361E-18,-8.67361737988404E-19));
#977=CARTESIAN_POINT('',(0.0144814927523077,-0.0086170949339336,0.0106506185219252));
#978=CARTESIAN_POINT('',(0.015,-0.0086170949339336,0.0106506185219252));
#979=CARTESIAN_POINT('',(-0.0144814927523077,-0.0086170949339336,0.0106506185219252));
#980=CARTESIAN_POINT('',(-0.0144814927523077,3.46944695195361E-18,-8.67361737988404E-19));
#981=CARTESIAN_POINT('',(0.015,-0.00998540155784234,-0.0114600067944413));
#982=CARTESIAN_POINT('',(0.015,-0.0109708031156847,-0.0125909284406228));
#983=CARTESIAN_POINT('',(0.0145,-0.0109708031156847,-0.0125909284406228));
#984=CARTESIAN_POINT('',(-0.0145,-0.0109708031156847,-0.0125909284406228));
#985=CARTESIAN_POINT('',(0.0312,8.94959954858658E-10,-7.79801977787064E-10));
#986=CARTESIAN_POINT('',(0.015,-0.0106423359297372,-0.0122139545585623));
#987=CARTESIAN_POINT('',(0.015,-0.00998540155784234,-0.0114600067944413));
#988=CARTESIAN_POINT('',(0.015,-0.00933468403932938,-0.0107131939632872));
#989=CARTESIAN_POINT('',(0.000538295154285223,8.94959957447047E-10,-7.79801975507865E-10));
#990=CARTESIAN_POINT('',(0.0149903685774919,-0.00932846718623071,-0.0107060590306453));
#991=CARTESIAN_POINT('',(-0.015,-0.00932846718623071,-0.0107060590306453));
#992=CARTESIAN_POINT('',(-0.0149903685774919,-0.00932846718623071,-0.0107060590306453));
#993=CARTESIAN_POINT('',(-0.000538295154285272,8.94959957447047E-10,-7.79801975507865E-10));
#994=CARTESIAN_POINT('',(-0.015,-0.00933468403932937,-0.0107131939632872));
#995=CARTESIAN_POINT('',(-0.015,-0.00998540155784234,-0.0114600067944413));
#996=CARTESIAN_POINT('',(-0.015,-0.0106423359297372,-0.0122139545585623));
#997=CARTESIAN_POINT('',(-0.0312,8.94959954858658E-10,-7.79801977787064E-10));
#998=CARTESIAN_POINT('',(0.015,-1.7347234759768E-18,-8.67361737988404E-19));
#999=CARTESIAN_POINT('',(0.015,0.0117086919401541,-0.011907834943875));
#1000=CARTESIAN_POINT('',(0.0145,0.0117086919401541,-0.011907834943875));
#1001=CARTESIAN_POINT('',(-0.0145,0.0117086919401541,-0.011907834943875));
#1002=CARTESIAN_POINT('',(0.0145,-1.7347234759768E-18,-8.67361737988404E-19));
#1003=CARTESIAN_POINT('',(-0.0145,-1.7347234759768E-18,-8.67361737988404E-19));
#1004=CARTESIAN_POINT('',(0.015,0.013765868264015,-0.013999999998707));
#1005=CARTESIAN_POINT('',(0.015,0.0167,-0.013999999998707));
#1006=CARTESIAN_POINT('',(0.0145,0.0167,-0.013999999998707));
#1007=CARTESIAN_POINT('',(-0.0145,0.0167,-0.013999999998707));
#1008=CARTESIAN_POINT('',(0.0145,0.013765868264015,-0.013999999998707));
#1009=CARTESIAN_POINT('',(-0.0145,0.013765868264015,-0.013999999998707));
#1010=CARTESIAN_POINT('',(0.015,0.0177,-0.013999999998707));
#1011=CARTESIAN_POINT('',(0.015,0.0177,-0.0149999999987071));
#1012=CARTESIAN_POINT('',(0.0145,0.0177,-0.0149999999987071));
#1013=CARTESIAN_POINT('',(-0.0145,0.0177,-0.0149999999987071));
#1014=CARTESIAN_POINT('',(0.0145,0.0177,-0.013999999998707));
#1015=CARTESIAN_POINT('',(-0.0145,0.0177,-0.013999999998707));
#1016=CARTESIAN_POINT('',(0.015,0.0187,-0.0149999999987071));
#1017=CARTESIAN_POINT('',(0.015,0.0197,-0.0149999999987071));
#1018=CARTESIAN_POINT('',(0.0145,0.0197,-0.0149999999987071));
#1019=CARTESIAN_POINT('',(-0.0145,0.0197,-0.0149999999987071));
#1020=CARTESIAN_POINT('',(0.0145,0.0177,-0.0149999999987071));
#1021=CARTESIAN_POINT('',(-0.0145,0.0187,-0.0149999999987071));
#1022=CARTESIAN_POINT('',(0.015,0.0197,1.29293624417937E-12));
#1023=CARTESIAN_POINT('',(0.015,0.0197,1.29293624417937E-12));
#1024=CARTESIAN_POINT('',(0.015,0.0197,0.0145000000012929));
#1025=CARTESIAN_POINT('',(0.015,0.0197,-0.0144999999987071));
#1026=CARTESIAN_POINT('',(0.02225,0.0197,-0.00724999999870706));
#1027=CARTESIAN_POINT('',(-0.00725,0.0197,-0.0222499999987071));
#1028=CARTESIAN_POINT('',(-0.015,0.0197,-0.0144999999987071));
#1029=CARTESIAN_POINT('',(-0.015,0.0197,1.29293624417937E-12));
#1030=CARTESIAN_POINT('',(-0.015,0.0197,0.0145000000012929));
#1031=CARTESIAN_POINT('',(-0.00725,0.0197,0.0222500000012929));
#1032=CARTESIAN_POINT('',(-0.0145,0.0197,0.0150000000012929));
#1033=CARTESIAN_POINT('',(0.015,0.0197,0.0150000000012929));
#1034=CARTESIAN_POINT('',(0.0145,0.0197,0.0150000000012929));
#1035=CARTESIAN_POINT('',(0.02225,0.0197,0.00725000000129293));
#1036=CARTESIAN_POINT('',(0.015,0.0187,0.0150000000012929));
#1037=CARTESIAN_POINT('',(0.015,0.0177,0.0150000000012929));
#1038=CARTESIAN_POINT('',(0.0145,0.0177,0.0150000000012929));
#1039=CARTESIAN_POINT('',(-0.0145,0.0177,0.0150000000012929));
#1040=CARTESIAN_POINT('',(0.0145,0.0187,0.0150000000012929));
#1041=CARTESIAN_POINT('',(-0.0145,0.0177,0.0150000000012929));
#1042=CARTESIAN_POINT('',(0.015,0.0177,0.0140000000012929));
#1043=CARTESIAN_POINT('',(0.0145,0.0177,0.0140000000012929));
#1044=CARTESIAN_POINT('',(-0.0145,0.0177,0.0140000000012929));
#1045=CARTESIAN_POINT('',(0.015,0.0031,0.));
#1046=CARTESIAN_POINT('',(0.015,-1.7347234759768E-18,-8.67361737988404E-19));
#1047=CARTESIAN_POINT('',(0.015,0.0113581323012273,-0.0115513129395674));
#1048=CARTESIAN_POINT('',(0.015,0.013765868264015,-0.013999999998707));
#1049=CARTESIAN_POINT('',(0.015,0.0172,-0.013999999998707));
#1050=CARTESIAN_POINT('',(0.015,0.0177,-0.013999999998707));
#1051=CARTESIAN_POINT('',(0.015,0.0177,-0.0144999999987071));
#1052=CARTESIAN_POINT('',(0.015,0.0197,-0.0144999999987071));
#1053=CARTESIAN_POINT('',(0.015,0.0031,0.0145000000012929));
#1054=CARTESIAN_POINT('',(0.015,0.0177,0.0145000000012929));
#1055=CARTESIAN_POINT('',(0.015,0.0177,0.0140000000012929));
#1056=CARTESIAN_POINT('',(0.015,0.0172,0.0140000000012929));
#1057=CARTESIAN_POINT('',(0.015,0.0137658682629311,0.0140000000012929));
#1058=CARTESIAN_POINT('',(0.015,0.011358132299706,0.0115513129410633));
#1059=CARTESIAN_POINT('',(0.015,1.7347234759768E-18,2.60208521396521E-18));
#1060=CARTESIAN_POINT('',(0.015,3.46944695195361E-18,-8.67361737988404E-19));
#1061=CARTESIAN_POINT('',(-0.015,0.0031,0.));
#1062=CARTESIAN_POINT('',(-0.015,0.013765868264015,-0.013999999998707));
#1063=CARTESIAN_POINT('',(-0.015,0.0172,-0.013999999998707));
#1064=CARTESIAN_POINT('',(-0.015,0.0113581323012273,-0.0115513129395674));
#1065=CARTESIAN_POINT('',(-0.015,-1.7347234759768E-18,-8.67361737988404E-19));
#1066=CARTESIAN_POINT('',(-0.015,3.46944695195361E-18,-8.67361737988404E-19));
#1067=CARTESIAN_POINT('',(-0.015,1.7347234759768E-18,2.60208521396521E-18));
#1068=CARTESIAN_POINT('',(-0.015,0.011358132299706,0.0115513129410633));
#1069=CARTESIAN_POINT('',(-0.015,0.0137658682629311,0.0140000000012929));
#1070=CARTESIAN_POINT('',(-0.015,0.0172,0.0140000000012929));
#1071=CARTESIAN_POINT('',(-0.015,0.0177,0.0140000000012929));
#1072=CARTESIAN_POINT('',(-0.015,0.0177,0.0145000000012929));
#1073=CARTESIAN_POINT('',(-0.015,0.0197,0.0145000000012929));
#1074=CARTESIAN_POINT('',(-0.015,0.0031,-0.0144999999987071));
#1075=CARTESIAN_POINT('',(-0.015,0.0177,-0.0144999999987071));
#1076=CARTESIAN_POINT('',(-0.015,0.0177,-0.013999999998707));
#1077=CARTESIAN_POINT('',(0.015,0.0031,-0.0144999999987071));
#1078=CARTESIAN_POINT('',(0.0145,0.0177,-0.0149999999987071));
#1079=CARTESIAN_POINT('',(0.015,0.0177,-0.013999999998707));
#1080=CARTESIAN_POINT('',(0.0145,0.0167,-0.013999999998707));
#1081=CARTESIAN_POINT('',(0.015,0.013765868264015,-0.013999999998707));
#1082=CARTESIAN_POINT('',(0.0145,0.0117086919401541,-0.011907834943875));
#1083=CARTESIAN_POINT('',(0.0145,-1.7347234759768E-18,-8.67361737988404E-19));
#1084=CARTESIAN_POINT('',(-0.0145,0.0187,-0.0149999999987071));
#1085=CARTESIAN_POINT('',(-0.015,0.0177,-0.0144999999987071));
#1086=CARTESIAN_POINT('',(-0.0145,0.0177,-0.013999999998707));
#1087=CARTESIAN_POINT('',(-0.015,0.0172,-0.013999999998707));
#1088=CARTESIAN_POINT('',(-0.0145,0.013765868264015,-0.013999999998707));
#1089=CARTESIAN_POINT('',(-0.015,0.0113581323012273,-0.0115513129395674));
#1090=CARTESIAN_POINT('',(-0.015,-1.7347234759768E-18,-8.67361737988404E-19));
#1091=CARTESIAN_POINT('',(0.0145,1.7347234759768E-18,2.60208521396521E-18));
#1092=CARTESIAN_POINT('',(0.0145,0.0117086919385858,0.0119078349454171));
#1093=CARTESIAN_POINT('',(0.0145,0.0137658682629311,0.0140000000012929));
#1094=CARTESIAN_POINT('',(0.0145,0.0167,0.0140000000012929));
#1095=CARTESIAN_POINT('',(0.015,0.0177,0.0140000000012929));
#1096=CARTESIAN_POINT('',(0.0145,0.0177,0.0150000000012929));
#1097=CARTESIAN_POINT('',(0.0145,0.0187,0.0150000000012929));
#1098=CARTESIAN_POINT('',(-0.015,1.7347234759768E-18,2.60208521396521E-18));
#1099=CARTESIAN_POINT('',(-0.015,0.011358132299706,0.0115513129410633));
#1100=CARTESIAN_POINT('',(-0.015,0.0137658682629311,0.0140000000012929));
#1101=CARTESIAN_POINT('',(-0.015,0.0172,0.0140000000012929));
#1102=CARTESIAN_POINT('',(-0.0145,0.0177,0.0140000000012929));
#1103=CARTESIAN_POINT('',(-0.015,0.0177,0.0145000000012929));
#1104=CARTESIAN_POINT('',(-0.015,0.0031,0.0145000000012929));
#1105=CARTESIAN_POINT('',(-0.0144814927523077,3.46944695195361E-18,-8.67361737988404E-19));
#1106=CARTESIAN_POINT('',(-0.0149903685774919,-0.00932846718623071,-0.0107060590306453));
#1107=CARTESIAN_POINT('',(-0.0148187040814278,-0.00909279303976327,-0.0106876918614697));
#1108=CARTESIAN_POINT('',(-0.0146489777301435,-0.00885574082330888,-0.0106692172929677));
#1109=CARTESIAN_POINT('',(-0.0144814927523077,-0.00861709493361034,-0.0106506185221867));
#1110=CARTESIAN_POINT('',(-0.0149903685770531,-0.00932846718627238,0.0107060590300371));
#1111=CARTESIAN_POINT('',(-0.0148187040811347,-0.00909279303989865,0.0106876918609764));
#1112=CARTESIAN_POINT('',(-0.0146489777299967,-0.00885574082353808,0.0106692172925899));
#1113=CARTESIAN_POINT('',(-0.0144814927523077,-0.0086170949339336,0.0106506185219252));
#1114=CARTESIAN_POINT('',(0.015,-0.0086170949339336,0.0106506185219252));
#1115=CARTESIAN_POINT('',(0.0144814927523077,-0.0086170949339336,0.0106506185219252));
#1116=CARTESIAN_POINT('',(0.0146489777299967,-0.00885574082353808,0.0106692172925899));
#1117=CARTESIAN_POINT('',(0.0148187040811347,-0.00909279303989865,0.0106876918609764));
#1118=CARTESIAN_POINT('',(0.0149903685770531,-0.00932846718627238,0.0107060590300371));
#1119=CARTESIAN_POINT('',(0.015,-0.00932846718623071,-0.0107060590306453));
#1120=CARTESIAN_POINT('',(0.0149903685774919,-0.00932846718623071,-0.0107060590306453));
#1121=CARTESIAN_POINT('',(0.0148187040814278,-0.00909279303976327,-0.0106876918614697));
#1122=CARTESIAN_POINT('',(0.0146489777301435,-0.00885574082330889,-0.0106692172929677));
#1123=CARTESIAN_POINT('',(0.0144814927523077,-0.00861709493361034,-0.0106506185221867));
#1124=CARTESIAN_POINT('',(0.015,3.46944695195361E-18,-8.67361737988404E-19));
#1125=CARTESIAN_POINT('',(-8.67361737988404E-19,-0.0113,2.07901775062984E-13));
#1126=CARTESIAN_POINT('',(-8.67361737988404E-19,0.0137,2.07901775062984E-13));
#1127=CARTESIAN_POINT('',(-8.67361737988404E-19,-0.0113,2.07901775062984E-13));
#1128=CARTESIAN_POINT('',(-8.67361737988404E-19,0.0137,2.07901775062984E-13));
#1129=CARTESIAN_POINT('',(-8.67361737988404E-19,0.0137,2.07901621982135E-13));
#1130=MECHANICAL_DESIGN_GEOMETRIC_PRESENTATION_REPRESENTATION('',(#641),
#1131);
#1131=(
GEOMETRIC_REPRESENTATION_CONTEXT(3)
GLOBAL_UNCERTAINTY_ASSIGNED_CONTEXT((#1132))
GLOBAL_UNIT_ASSIGNED_CONTEXT((#1135,#1134,#1133))
REPRESENTATION_CONTEXT('Part 1','TOP_LEVEL_ASSEMBLY_PART')
);
#1132=UNCERTAINTY_MEASURE_WITH_UNIT(LENGTH_MEASURE(2.E-5),#1135,
'DISTANCE_ACCURACY_VALUE','Maximum Tolerance applied to model');
#1133=(
NAMED_UNIT(*)
SI_UNIT($,.STERADIAN.)
SOLID_ANGLE_UNIT()
);
#1134=(
NAMED_UNIT(*)
PLANE_ANGLE_UNIT()
SI_UNIT($,.RADIAN.)
);
#1135=(
LENGTH_UNIT()
NAMED_UNIT(*)
SI_UNIT($,.METRE.)
);
#1136=PRODUCT_DEFINITION_SHAPE('','',#1137);
#1137=PRODUCT_DEFINITION('','',#1139,#1138);
#1138=PRODUCT_DEFINITION_CONTEXT('',#1145,'design');
#1139=PRODUCT_DEFINITION_FORMATION_WITH_SPECIFIED_SOURCE('','',#1141,
 .NOT_KNOWN.);
#1140=PRODUCT_RELATED_PRODUCT_CATEGORY('','',(#1141));
#1141=PRODUCT('Part 1','Part 1','Part 1',(#1143));
#1142=PRODUCT_CATEGORY('','');
#1143=PRODUCT_CONTEXT('',#1145,'mechanical');
#1144=APPLICATION_PROTOCOL_DEFINITION('international standard',
'ap242_managed_model_based_3d_engineering',2020,#1145);
#1145=APPLICATION_CONTEXT('managed model based 3d engineering');
ENDSEC;
END-ISO-10303-21;
